<svg width="422" height="160" viewBox="0 0 422 160" fill="none" xmlns="http://www.w3.org/2000/svg">
<path d="M1.92 106.84H6.56V122.52H15.68V127H1.92V106.84ZM22.5675 127.16C21.6928 127.16 20.8928 127.021 20.1675 126.744C19.4422 126.445 18.8128 126.029 18.2795 125.496C17.7675 124.941 17.3622 124.28 17.0635 123.512C16.7862 122.744 16.6475 121.88 16.6475 120.92V112.28H20.9675V120.12C20.9675 121.08 21.2128 121.827 21.7035 122.36C22.2155 122.893 22.8768 123.16 23.6875 123.16C24.4982 123.16 25.1488 122.893 25.6395 122.36C26.1515 121.827 26.4075 121.08 26.4075 120.12V112.28H30.7275V127H27.5275L26.8875 125.56C26.5248 125.859 26.1195 126.125 25.6715 126.36C25.2875 126.573 24.8288 126.765 24.2955 126.936C23.7835 127.085 23.2075 127.16 22.5675 127.16ZM42.2525 127L37.7725 120.44V127H33.4525V106.84H37.7725V118.2L41.7725 112.28H46.7325L41.7725 119.32L47.2125 127H42.2525ZM52.4838 127H48.1638V112.28H52.4838V127ZM48.0038 108.28C48.0038 107.64 48.2384 107.085 48.7078 106.616C49.1984 106.125 49.7638 105.88 50.4038 105.88C51.0438 105.88 51.5984 106.125 52.0678 106.616C52.5584 107.085 52.8038 107.64 52.8038 108.28C52.8038 108.92 52.5584 109.485 52.0678 109.976C51.5984 110.445 51.0438 110.68 50.4038 110.68C49.7638 110.68 49.1984 110.445 48.7078 109.976C48.2384 109.485 48.0038 108.92 48.0038 108.28ZM63.6838 112.12C64.5584 112.12 65.3584 112.269 66.0838 112.568C66.8091 112.845 67.4278 113.261 67.9398 113.816C68.4731 114.349 68.8784 115 69.1558 115.768C69.4544 116.536 69.6038 117.4 69.6038 118.36V127H65.2838V119.16C65.2838 118.2 65.0278 117.453 64.5158 116.92C64.0251 116.387 63.3744 116.12 62.5638 116.12C61.7531 116.12 61.0918 116.387 60.5798 116.92C60.0891 117.453 59.8438 118.2 59.8438 119.16V127H55.5238V112.28H58.7238L59.3638 113.72C59.7051 113.421 60.0998 113.155 60.5478 112.92C60.9318 112.728 61.3904 112.547 61.9238 112.376C62.4571 112.205 63.0438 112.12 63.6838 112.12ZM87.5438 106.84C88.5891 106.84 89.5384 107.011 90.3918 107.352C91.2664 107.693 92.0131 108.152 92.6318 108.728C93.2504 109.304 93.7304 109.987 94.0718 110.776C94.4131 111.544 94.5838 112.365 94.5838 113.24C94.5838 114.371 94.3811 115.32 93.9758 116.088C93.5918 116.856 93.1544 117.485 92.6638 117.976C92.1944 118.445 91.7571 118.787 91.3518 119C90.9464 119.213 90.7438 119.32 90.7438 119.32L95.2238 127H90.1038L86.4238 120.28H84.0238V127H79.3838V106.84H87.5438ZM87.5438 115.8C88.3544 115.8 88.9838 115.587 89.4318 115.16C89.8798 114.733 90.1038 114.2 90.1038 113.56C90.1038 112.92 89.8798 112.387 89.4318 111.96C88.9838 111.533 88.3544 111.32 87.5438 111.32H84.0238V115.8H87.5438ZM110.434 122.68C110.242 123.277 109.954 123.853 109.57 124.408C109.186 124.963 108.706 125.464 108.13 125.912C107.554 126.339 106.882 126.68 106.114 126.936C105.367 127.192 104.514 127.32 103.554 127.32C102.551 127.32 101.602 127.128 100.706 126.744C99.8311 126.339 99.0524 125.795 98.3697 125.112C97.7084 124.408 97.1751 123.597 96.7697 122.68C96.3857 121.741 96.1937 120.728 96.1937 119.64C96.1937 118.552 96.3857 117.549 96.7697 116.632C97.1751 115.693 97.7191 114.883 98.4017 114.2C99.0844 113.496 99.8737 112.952 100.77 112.568C101.687 112.163 102.668 111.96 103.714 111.96C104.716 111.96 105.655 112.141 106.53 112.504C107.404 112.867 108.162 113.389 108.802 114.072C109.463 114.733 109.975 115.544 110.338 116.504C110.722 117.443 110.914 118.488 110.914 119.64C110.914 119.811 110.903 119.981 110.882 120.152C110.86 120.301 110.839 120.451 110.818 120.6C110.796 120.771 110.775 120.931 110.754 121.08H100.674C100.844 121.635 101.186 122.147 101.698 122.616C102.231 123.085 102.903 123.32 103.714 123.32C104.119 123.32 104.46 123.277 104.738 123.192C105.036 123.085 105.271 122.968 105.442 122.84C105.655 122.712 105.826 122.552 105.954 122.36L110.434 122.68ZM103.714 115.96C102.903 115.96 102.231 116.205 101.698 116.696C101.186 117.165 100.844 117.72 100.674 118.36H106.754C106.583 117.72 106.231 117.165 105.698 116.696C105.186 116.205 104.524 115.96 103.714 115.96ZM112.343 112.44C112.343 111.672 112.503 110.947 112.823 110.264C113.164 109.56 113.644 108.952 114.263 108.44C114.881 107.907 115.628 107.48 116.503 107.16C117.399 106.84 118.412 106.68 119.543 106.68C120.631 106.68 121.601 106.84 122.455 107.16C123.329 107.48 124.065 107.928 124.663 108.504C125.281 109.08 125.751 109.763 126.071 110.552C126.412 111.32 126.583 112.163 126.583 113.08L122.103 113.4C122.103 112.589 121.879 111.96 121.431 111.512C120.983 111.064 120.353 110.84 119.543 110.84C118.817 110.84 118.231 111.043 117.783 111.448C117.356 111.832 117.143 112.269 117.143 112.76C117.143 113.251 117.388 113.624 117.879 113.88C118.369 114.136 118.977 114.381 119.703 114.616C120.449 114.829 121.249 115.064 122.103 115.32C122.956 115.576 123.745 115.939 124.471 116.408C125.217 116.877 125.836 117.496 126.327 118.264C126.817 119.032 127.063 120.024 127.063 121.24C127.063 122.051 126.892 122.819 126.551 123.544C126.231 124.248 125.751 124.867 125.111 125.4C124.471 125.933 123.681 126.36 122.743 126.68C121.804 127 120.737 127.16 119.543 127.16C118.391 127.16 117.356 127 116.439 126.68C115.521 126.36 114.743 125.912 114.103 125.336C113.484 124.739 113.004 124.045 112.663 123.256C112.343 122.445 112.183 121.56 112.183 120.6L116.663 120.28C116.663 122.093 117.623 123 119.543 123C120.439 123 121.111 122.797 121.559 122.392C122.028 121.965 122.263 121.475 122.263 120.92C122.263 120.408 122.017 120.013 121.527 119.736C121.036 119.459 120.417 119.203 119.671 118.968C118.945 118.733 118.156 118.488 117.303 118.232C116.449 117.976 115.649 117.624 114.903 117.176C114.177 116.707 113.569 116.099 113.079 115.352C112.588 114.605 112.343 113.635 112.343 112.44ZM136.035 111.96C136.76 111.96 137.422 112.045 138.019 112.216C138.616 112.365 139.15 112.579 139.619 112.856C140.088 113.133 140.494 113.443 140.835 113.784C141.198 114.125 141.507 114.477 141.763 114.84C142.36 115.693 142.798 116.653 143.075 117.72L138.755 118.04C138.606 117.656 138.414 117.315 138.179 117.016C137.966 116.76 137.678 116.525 137.315 116.312C136.974 116.077 136.547 115.96 136.035 115.96C135.139 115.96 134.382 116.291 133.763 116.952C133.144 117.613 132.835 118.509 132.835 119.64C132.835 120.771 133.144 121.667 133.763 122.328C134.382 122.989 135.139 123.32 136.035 123.32C136.547 123.32 136.974 123.213 137.315 123C137.678 122.787 137.966 122.552 138.179 122.296C138.414 121.997 138.606 121.645 138.755 121.24L143.075 121.56C142.798 122.627 142.36 123.587 141.763 124.44C141.507 124.803 141.198 125.155 140.835 125.496C140.494 125.837 140.088 126.147 139.619 126.424C139.15 126.701 138.616 126.915 138.019 127.064C137.422 127.235 136.76 127.32 136.035 127.32C134.99 127.32 134.008 127.128 133.091 126.744C132.195 126.339 131.406 125.795 130.723 125.112C130.04 124.408 129.496 123.597 129.091 122.68C128.707 121.741 128.515 120.728 128.515 119.64C128.515 118.552 128.707 117.549 129.091 116.632C129.496 115.693 130.04 114.883 130.723 114.2C131.406 113.496 132.195 112.952 133.091 112.568C134.008 112.163 134.99 111.96 136.035 111.96ZM152.347 112.12C152.539 112.12 152.71 112.131 152.859 112.152C153.03 112.173 153.169 112.195 153.275 112.216C153.403 112.237 153.521 112.259 153.627 112.28V116.76C153.499 116.717 153.35 116.664 153.179 116.6C153.03 116.557 152.859 116.525 152.667 116.504C152.475 116.461 152.262 116.44 152.027 116.44C151.217 116.44 150.555 116.707 150.043 117.24C149.553 117.773 149.307 118.52 149.307 119.48V127H144.987V112.28H148.187L148.827 113.88C149.083 113.56 149.393 113.272 149.755 113.016C150.054 112.781 150.417 112.579 150.843 112.408C151.291 112.216 151.793 112.12 152.347 112.12ZM159.863 127H155.543V112.28H159.863V127ZM155.383 108.28C155.383 107.64 155.617 107.085 156.087 106.616C156.577 106.125 157.143 105.88 157.783 105.88C158.423 105.88 158.977 106.125 159.447 106.616C159.937 107.085 160.183 107.64 160.183 108.28C160.183 108.92 159.937 109.485 159.447 109.976C158.977 110.445 158.423 110.68 157.783 110.68C157.143 110.68 156.577 110.445 156.087 109.976C155.617 109.485 155.383 108.92 155.383 108.28ZM170.903 112.12C171.82 112.12 172.695 112.312 173.527 112.696C174.359 113.059 175.084 113.581 175.703 114.264C176.343 114.925 176.844 115.715 177.207 116.632C177.591 117.549 177.783 118.552 177.783 119.64C177.783 120.728 177.591 121.731 177.207 122.648C176.844 123.565 176.343 124.365 175.703 125.048C175.084 125.709 174.359 126.232 173.527 126.616C172.695 126.979 171.82 127.16 170.903 127.16C170.348 127.16 169.836 127.096 169.367 126.968C168.919 126.84 168.535 126.691 168.215 126.52C167.831 126.328 167.5 126.115 167.223 125.88V132.12H162.903V112.28H166.103L166.743 113.72C167.063 113.421 167.436 113.155 167.863 112.92C168.225 112.728 168.663 112.547 169.175 112.376C169.687 112.205 170.263 112.12 170.903 112.12ZM173.463 119.64C173.463 118.595 173.153 117.752 172.535 117.112C171.916 116.451 171.159 116.12 170.263 116.12C169.367 116.12 168.609 116.451 167.991 117.112C167.372 117.752 167.063 118.595 167.063 119.64C167.063 120.685 167.372 121.539 167.991 122.2C168.609 122.84 169.367 123.16 170.263 123.16C171.159 123.16 171.916 122.84 172.535 122.2C173.153 121.539 173.463 120.685 173.463 119.64ZM181.14 116.28H178.9V112.6H180.02C181.193 112.6 181.78 112.013 181.78 110.84V108.76H185.46V112.28H188.5V116.28H185.46V121.08C185.46 121.72 185.641 122.232 186.004 122.616C186.367 122.979 186.825 123.16 187.38 123.16C187.551 123.16 187.7 123.16 187.828 123.16C187.956 123.139 188.073 123.117 188.18 123.096C188.287 123.075 188.393 123.043 188.5 123V126.84C188.329 126.904 188.137 126.957 187.924 127C187.497 127.107 186.996 127.16 186.42 127.16C184.735 127.16 183.433 126.701 182.516 125.784C181.599 124.845 181.14 123.491 181.14 121.72V116.28ZM205.803 112.28V116.92H210.283V120.76H205.803V125.4H201.803V120.76H197.323V116.92H201.803V112.28H205.803ZM227.732 106.84C228.778 106.84 229.727 107.011 230.58 107.352C231.455 107.693 232.202 108.152 232.82 108.728C233.439 109.304 233.919 109.987 234.26 110.776C234.602 111.544 234.772 112.365 234.772 113.24C234.772 114.371 234.57 115.32 234.164 116.088C233.78 116.856 233.343 117.485 232.852 117.976C232.383 118.445 231.946 118.787 231.54 119C231.135 119.213 230.932 119.32 230.932 119.32L235.412 127H230.292L226.612 120.28H224.212V127H219.572V106.84H227.732ZM227.732 115.8C228.543 115.8 229.172 115.587 229.62 115.16C230.068 114.733 230.292 114.2 230.292 113.56C230.292 112.92 230.068 112.387 229.62 111.96C229.172 111.533 228.543 111.32 227.732 111.32H224.212V115.8H227.732ZM250.623 122.68C250.431 123.277 250.143 123.853 249.759 124.408C249.375 124.963 248.895 125.464 248.319 125.912C247.743 126.339 247.071 126.68 246.303 126.936C245.556 127.192 244.703 127.32 243.743 127.32C242.74 127.32 241.791 127.128 240.895 126.744C240.02 126.339 239.241 125.795 238.559 125.112C237.897 124.408 237.364 123.597 236.959 122.68C236.575 121.741 236.383 120.728 236.383 119.64C236.383 118.552 236.575 117.549 236.959 116.632C237.364 115.693 237.908 114.883 238.591 114.2C239.273 113.496 240.063 112.952 240.959 112.568C241.876 112.163 242.857 111.96 243.903 111.96C244.905 111.96 245.844 112.141 246.719 112.504C247.593 112.867 248.351 113.389 248.991 114.072C249.652 114.733 250.164 115.544 250.527 116.504C250.911 117.443 251.103 118.488 251.103 119.64C251.103 119.811 251.092 119.981 251.071 120.152C251.049 120.301 251.028 120.451 251.007 120.6C250.985 120.771 250.964 120.931 250.943 121.08H240.863C241.033 121.635 241.375 122.147 241.887 122.616C242.42 123.085 243.092 123.32 243.903 123.32C244.308 123.32 244.649 123.277 244.927 123.192C245.225 123.085 245.46 122.968 245.631 122.84C245.844 122.712 246.015 122.552 246.143 122.36L250.623 122.68ZM243.903 115.96C243.092 115.96 242.42 116.205 241.887 116.696C241.375 117.165 241.033 117.72 240.863 118.36H246.943C246.772 117.72 246.42 117.165 245.887 116.696C245.375 116.205 244.713 115.96 243.903 115.96ZM259.411 111.96C260.286 111.96 261.097 112.109 261.843 112.408C262.59 112.707 263.23 113.133 263.763 113.688C264.318 114.221 264.745 114.861 265.043 115.608C265.342 116.355 265.491 117.165 265.491 118.04V127H262.291L261.651 125.56C261.289 125.859 260.883 126.125 260.435 126.36C260.051 126.573 259.593 126.765 259.059 126.936C258.547 127.085 257.971 127.16 257.331 127.16C255.731 127.16 254.505 126.776 253.651 126.008C252.798 125.219 252.371 124.216 252.371 123C252.371 122.275 252.51 121.613 252.787 121.016C253.086 120.397 253.577 119.875 254.259 119.448C254.942 119 255.838 118.659 256.947 118.424C258.078 118.168 259.486 118.04 261.171 118.04C261.171 117.315 260.99 116.76 260.627 116.376C260.265 115.992 259.806 115.8 259.251 115.8C258.846 115.8 258.515 115.885 258.259 116.056C258.025 116.205 257.833 116.365 257.683 116.536C257.513 116.749 257.395 116.984 257.331 117.24L253.011 116.92C253.139 116.195 253.363 115.533 253.683 114.936C254.003 114.317 254.419 113.795 254.931 113.368C255.465 112.92 256.105 112.579 256.851 112.344C257.598 112.088 258.451 111.96 259.411 111.96ZM258.451 123.96C259.262 123.96 259.913 123.715 260.403 123.224C260.915 122.712 261.171 122.051 261.171 121.24V120.6C260.254 120.6 259.497 120.653 258.899 120.76C258.323 120.845 257.865 120.973 257.523 121.144C257.203 121.315 256.979 121.517 256.851 121.752C256.745 121.987 256.691 122.243 256.691 122.52C256.691 122.925 256.841 123.267 257.139 123.544C257.459 123.821 257.897 123.96 258.451 123.96ZM274.942 111.96C275.668 111.96 276.329 112.045 276.926 112.216C277.524 112.365 278.057 112.579 278.526 112.856C278.996 113.133 279.401 113.443 279.742 113.784C280.105 114.125 280.414 114.477 280.67 114.84C281.268 115.693 281.705 116.653 281.982 117.72L277.662 118.04C277.513 117.656 277.321 117.315 277.086 117.016C276.873 116.76 276.585 116.525 276.222 116.312C275.881 116.077 275.454 115.96 274.942 115.96C274.046 115.96 273.289 116.291 272.67 116.952C272.052 117.613 271.742 118.509 271.742 119.64C271.742 120.771 272.052 121.667 272.67 122.328C273.289 122.989 274.046 123.32 274.942 123.32C275.454 123.32 275.881 123.213 276.222 123C276.585 122.787 276.873 122.552 277.086 122.296C277.321 121.997 277.513 121.645 277.662 121.24L281.982 121.56C281.705 122.627 281.268 123.587 280.67 124.44C280.414 124.803 280.105 125.155 279.742 125.496C279.401 125.837 278.996 126.147 278.526 126.424C278.057 126.701 277.524 126.915 276.926 127.064C276.329 127.235 275.668 127.32 274.942 127.32C273.897 127.32 272.916 127.128 271.998 126.744C271.102 126.339 270.313 125.795 269.63 125.112C268.948 124.408 268.404 123.597 267.998 122.68C267.614 121.741 267.422 120.728 267.422 119.64C267.422 118.552 267.614 117.549 267.998 116.632C268.404 115.693 268.948 114.883 269.63 114.2C270.313 113.496 271.102 112.952 271.998 112.568C272.916 112.163 273.897 111.96 274.942 111.96ZM285.175 116.28H282.935V112.6H284.055C285.228 112.6 285.815 112.013 285.815 110.84V108.76H289.495V112.28H292.535V116.28H289.495V121.08C289.495 121.72 289.676 122.232 290.039 122.616C290.402 122.979 290.86 123.16 291.415 123.16C291.586 123.16 291.735 123.16 291.863 123.16C291.991 123.139 292.108 123.117 292.215 123.096C292.322 123.075 292.428 123.043 292.535 123V126.84C292.364 126.904 292.172 126.957 291.959 127C291.532 127.107 291.031 127.16 290.455 127.16C288.77 127.16 287.468 126.701 286.551 125.784C285.634 124.845 285.175 123.491 285.175 121.72V116.28ZM311.117 127H306.477V111.32H300.717V106.84H316.877V111.32H311.117V127ZM330.961 122.68C330.769 123.277 330.481 123.853 330.097 124.408C329.713 124.963 329.233 125.464 328.657 125.912C328.081 126.339 327.409 126.68 326.641 126.936C325.895 127.192 325.041 127.32 324.081 127.32C323.079 127.32 322.129 127.128 321.233 126.744C320.359 126.339 319.58 125.795 318.897 125.112C318.236 124.408 317.703 123.597 317.297 122.68C316.913 121.741 316.721 120.728 316.721 119.64C316.721 118.552 316.913 117.549 317.297 116.632C317.703 115.693 318.247 114.883 318.929 114.2C319.612 113.496 320.401 112.952 321.297 112.568C322.215 112.163 323.196 111.96 324.241 111.96C325.244 111.96 326.183 112.141 327.057 112.504C327.932 112.867 328.689 113.389 329.329 114.072C329.991 114.733 330.503 115.544 330.865 116.504C331.249 117.443 331.441 118.488 331.441 119.64C331.441 119.811 331.431 119.981 331.409 120.152C331.388 120.301 331.367 120.451 331.345 120.6C331.324 120.771 331.303 120.931 331.281 121.08H321.201C321.372 121.635 321.713 122.147 322.225 122.616C322.759 123.085 323.431 123.32 324.241 123.32C324.647 123.32 324.988 123.277 325.265 123.192C325.564 123.085 325.799 122.968 325.969 122.84C326.183 122.712 326.353 122.552 326.481 122.36L330.961 122.68ZM324.241 115.96C323.431 115.96 322.759 116.205 322.225 116.696C321.713 117.165 321.372 117.72 321.201 118.36H327.281C327.111 117.72 326.759 117.165 326.225 116.696C325.713 116.205 325.052 115.96 324.241 115.96ZM340.87 112.12C341.617 112.12 342.257 112.227 342.79 112.44C343.323 112.632 343.761 112.845 344.102 113.08C344.486 113.357 344.795 113.677 345.03 114.04C345.371 113.677 345.766 113.357 346.214 113.08C346.598 112.845 347.057 112.632 347.59 112.44C348.123 112.227 348.71 112.12 349.35 112.12C350.95 112.12 352.23 112.632 353.19 113.656C354.15 114.68 354.63 116.195 354.63 118.2V127H350.31V118.68C350.31 117.869 350.097 117.24 349.67 116.792C349.265 116.344 348.785 116.12 348.23 116.12C347.675 116.12 347.185 116.344 346.758 116.792C346.353 117.24 346.15 117.869 346.15 118.68V127H341.83V118.68C341.83 117.869 341.617 117.24 341.19 116.792C340.785 116.344 340.305 116.12 339.75 116.12C339.195 116.12 338.705 116.344 338.278 116.792C337.873 117.24 337.67 117.869 337.67 118.68V127H333.35V112.28H336.55L337.19 113.72C337.467 113.421 337.798 113.155 338.182 112.92C338.502 112.728 338.886 112.547 339.334 112.376C339.803 112.205 340.315 112.12 340.87 112.12ZM365.182 112.12C366.1 112.12 366.974 112.312 367.806 112.696C368.638 113.059 369.364 113.581 369.982 114.264C370.622 114.925 371.124 115.715 371.486 116.632C371.87 117.549 372.062 118.552 372.062 119.64C372.062 120.728 371.87 121.731 371.486 122.648C371.124 123.565 370.622 124.365 369.982 125.048C369.364 125.709 368.638 126.232 367.806 126.616C366.974 126.979 366.1 127.16 365.182 127.16C364.628 127.16 364.116 127.096 363.646 126.968C363.198 126.84 362.814 126.691 362.494 126.52C362.11 126.328 361.78 126.115 361.502 125.88V132.12H357.182V112.28H360.382L361.022 113.72C361.342 113.421 361.716 113.155 362.142 112.92C362.505 112.728 362.942 112.547 363.454 112.376C363.966 112.205 364.542 112.12 365.182 112.12ZM367.742 119.64C367.742 118.595 367.433 117.752 366.814 117.112C366.196 116.451 365.438 116.12 364.542 116.12C363.646 116.12 362.889 116.451 362.27 117.112C361.652 117.752 361.342 118.595 361.342 119.64C361.342 120.685 361.652 121.539 362.27 122.2C362.889 122.84 363.646 123.16 364.542 123.16C365.438 123.16 366.196 122.84 366.814 122.2C367.433 121.539 367.742 120.685 367.742 119.64ZM378.46 127H374.14V106.84H378.46V127ZM387.591 111.96C388.466 111.96 389.277 112.109 390.023 112.408C390.77 112.707 391.41 113.133 391.943 113.688C392.498 114.221 392.925 114.861 393.223 115.608C393.522 116.355 393.671 117.165 393.671 118.04V127H390.471L389.831 125.56C389.469 125.859 389.063 126.125 388.615 126.36C388.231 126.573 387.773 126.765 387.239 126.936C386.727 127.085 386.151 127.16 385.511 127.16C383.911 127.16 382.685 126.776 381.831 126.008C380.978 125.219 380.551 124.216 380.551 123C380.551 122.275 380.69 121.613 380.967 121.016C381.266 120.397 381.757 119.875 382.439 119.448C383.122 119 384.018 118.659 385.127 118.424C386.258 118.168 387.666 118.04 389.351 118.04C389.351 117.315 389.17 116.76 388.807 116.376C388.445 115.992 387.986 115.8 387.431 115.8C387.026 115.8 386.695 115.885 386.439 116.056C386.205 116.205 386.013 116.365 385.863 116.536C385.693 116.749 385.575 116.984 385.511 117.24L381.191 116.92C381.319 116.195 381.543 115.533 381.863 114.936C382.183 114.317 382.599 113.795 383.111 113.368C383.645 112.92 384.285 112.579 385.031 112.344C385.778 112.088 386.631 111.96 387.591 111.96ZM386.631 123.96C387.442 123.96 388.093 123.715 388.583 123.224C389.095 122.712 389.351 122.051 389.351 121.24V120.6C388.434 120.6 387.677 120.653 387.079 120.76C386.503 120.845 386.045 120.973 385.703 121.144C385.383 121.315 385.159 121.517 385.031 121.752C384.925 121.987 384.871 122.243 384.871 122.52C384.871 122.925 385.021 123.267 385.319 123.544C385.639 123.821 386.077 123.96 386.631 123.96ZM397.21 116.28H394.97V112.6H396.09C397.263 112.6 397.85 112.013 397.85 110.84V108.76H401.53V112.28H404.57V116.28H401.53V121.08C401.53 121.72 401.711 122.232 402.074 122.616C402.437 122.979 402.895 123.16 403.45 123.16C403.621 123.16 403.77 123.16 403.898 123.16C404.026 123.139 404.143 123.117 404.25 123.096C404.357 123.075 404.463 123.043 404.57 123V126.84C404.399 126.904 404.207 126.957 403.994 127C403.567 127.107 403.066 127.16 402.49 127.16C400.805 127.16 399.503 126.701 398.586 125.784C397.669 124.845 397.21 123.491 397.21 121.72V116.28ZM420.425 122.68C420.233 123.277 419.945 123.853 419.561 124.408C419.177 124.963 418.697 125.464 418.121 125.912C417.545 126.339 416.873 126.68 416.105 126.936C415.358 127.192 414.505 127.32 413.545 127.32C412.542 127.32 411.593 127.128 410.697 126.744C409.822 126.339 409.044 125.795 408.361 125.112C407.7 124.408 407.166 123.597 406.761 122.68C406.377 121.741 406.185 120.728 406.185 119.64C406.185 118.552 406.377 117.549 406.761 116.632C407.166 115.693 407.71 114.883 408.393 114.2C409.076 113.496 409.865 112.952 410.761 112.568C411.678 112.163 412.66 111.96 413.705 111.96C414.708 111.96 415.646 112.141 416.521 112.504C417.396 112.867 418.153 113.389 418.793 114.072C419.454 114.733 419.966 115.544 420.329 116.504C420.713 117.443 420.905 118.488 420.905 119.64C420.905 119.811 420.894 119.981 420.873 120.152C420.852 120.301 420.83 120.451 420.809 120.6C420.788 120.771 420.766 120.931 420.745 121.08H410.665C410.836 121.635 411.177 122.147 411.689 122.616C412.222 123.085 412.894 123.32 413.705 123.32C414.11 123.32 414.452 123.277 414.729 123.192C415.028 123.085 415.262 122.968 415.433 122.84C415.646 122.712 415.817 122.552 415.945 122.36L420.425 122.68ZM413.705 115.96C412.894 115.96 412.222 116.205 411.689 116.696C411.177 117.165 410.836 117.72 410.665 118.36H416.745C416.574 117.72 416.222 117.165 415.689 116.696C415.177 116.205 414.516 115.96 413.705 115.96Z" fill="black"/>
<path d="M95.08 145.04C95.88 145.04 96.6213 145.179 97.304 145.456C97.9867 145.723 98.5787 146.096 99.08 146.576C99.5813 147.045 99.9707 147.595 100.248 148.224C100.536 148.853 100.68 149.525 100.68 150.24C100.68 150.699 100.616 151.115 100.488 151.488C100.36 151.851 100.184 152.16 99.96 152.416C99.736 152.672 99.48 152.869 99.192 153.008C98.904 153.136 98.6 153.2 98.28 153.2C97.9707 153.2 97.7093 153.152 97.496 153.056C97.2827 152.949 97.1013 152.837 96.952 152.72C96.7813 152.581 96.6373 152.421 96.52 152.24C96.3813 152.421 96.2213 152.581 96.04 152.72C95.88 152.837 95.688 152.949 95.464 153.056C95.24 153.152 94.9787 153.2 94.68 153.2C94.3387 153.2 94.0187 153.136 93.72 153.008C93.4213 152.869 93.16 152.677 92.936 152.432C92.712 152.187 92.5307 151.893 92.392 151.552C92.264 151.2 92.2 150.816 92.2 150.4C92.2 149.984 92.264 149.605 92.392 149.264C92.5307 148.912 92.712 148.613 92.936 148.368C93.16 148.123 93.4213 147.936 93.72 147.808C94.0187 147.669 94.3387 147.6 94.68 147.6C94.8827 147.6 95.064 147.643 95.224 147.728C95.3947 147.803 95.5387 147.883 95.656 147.968C95.7947 148.075 95.9227 148.192 96.04 148.32L96.28 147.76H97.56V150.56C97.56 151.008 97.6293 151.323 97.768 151.504C97.9067 151.675 98.0773 151.76 98.28 151.76C98.5253 151.76 98.7333 151.648 98.904 151.424C99.0747 151.2 99.16 150.805 99.16 150.24C99.16 149.717 99.0533 149.221 98.84 148.752C98.6373 148.283 98.3547 147.877 97.992 147.536C97.6293 147.184 97.1973 146.907 96.696 146.704C96.1947 146.501 95.656 146.4 95.08 146.4C94.5147 146.4 93.9867 146.507 93.496 146.72C93.016 146.923 92.5947 147.205 92.232 147.568C91.8693 147.92 91.5867 148.341 91.384 148.832C91.1813 149.323 91.08 149.845 91.08 150.4C91.08 150.965 91.1813 151.493 91.384 151.984C91.5867 152.464 91.8693 152.885 92.232 153.248C92.5947 153.611 93.016 153.893 93.496 154.096C93.9867 154.299 94.5147 154.4 95.08 154.4C95.4213 154.4 95.7307 154.363 96.008 154.288C96.2853 154.213 96.5253 154.128 96.728 154.032C96.9627 153.925 97.176 153.803 97.368 153.664C97.5173 153.845 97.656 154.032 97.784 154.224C97.912 154.427 98.0453 154.624 98.184 154.816C97.9387 154.997 97.656 155.157 97.336 155.296C97.0587 155.413 96.7333 155.52 96.36 155.616C95.9867 155.712 95.56 155.76 95.08 155.76C94.3013 155.76 93.576 155.621 92.904 155.344C92.232 155.067 91.6453 154.688 91.144 154.208C90.6533 153.728 90.264 153.163 89.976 152.512C89.6987 151.861 89.56 151.157 89.56 150.4C89.56 149.653 89.6987 148.955 89.976 148.304C90.264 147.653 90.6533 147.088 91.144 146.608C91.6453 146.117 92.232 145.733 92.904 145.456C93.576 145.179 94.3013 145.04 95.08 145.04ZM96.12 150.4C96.12 149.995 95.9973 149.669 95.752 149.424C95.5173 149.168 95.24 149.04 94.92 149.04C94.6 149.04 94.3173 149.168 94.072 149.424C93.8373 149.669 93.72 149.995 93.72 150.4C93.72 150.805 93.8373 151.136 94.072 151.392C94.3173 151.637 94.6 151.76 94.92 151.76C95.24 151.76 95.5173 151.637 95.752 151.392C95.9973 151.136 96.12 150.805 96.12 150.4ZM103.876 154H101.716V143.92H103.876V154ZM108.122 154.08C107.685 154.08 107.285 154.011 106.922 153.872C106.559 153.723 106.245 153.515 105.978 153.248C105.722 152.971 105.519 152.64 105.37 152.256C105.231 151.872 105.162 151.44 105.162 150.96V146.64H107.322V150.56C107.322 151.04 107.445 151.413 107.69 151.68C107.946 151.947 108.277 152.08 108.682 152.08C109.087 152.08 109.413 151.947 109.658 151.68C109.914 151.413 110.042 151.04 110.042 150.56V146.64H112.202V154H110.602L110.282 153.28C110.101 153.429 109.898 153.563 109.674 153.68C109.482 153.787 109.253 153.883 108.986 153.968C108.73 154.043 108.442 154.08 108.122 154.08ZM117.964 154L115.724 150.72V154H113.564V143.92H115.724V149.6L117.724 146.64H120.204L117.724 150.16L120.444 154H117.964ZM123.08 154H120.92V146.64H123.08V154ZM120.84 144.64C120.84 144.32 120.957 144.043 121.192 143.808C121.437 143.563 121.72 143.44 122.04 143.44C122.36 143.44 122.637 143.563 122.872 143.808C123.117 144.043 123.24 144.32 123.24 144.64C123.24 144.96 123.117 145.243 122.872 145.488C122.637 145.723 122.36 145.84 122.04 145.84C121.72 145.84 121.437 145.723 121.192 145.488C120.957 145.243 120.84 144.96 120.84 144.64ZM128.68 146.56C129.117 146.56 129.517 146.635 129.88 146.784C130.243 146.923 130.552 147.131 130.808 147.408C131.075 147.675 131.277 148 131.416 148.384C131.565 148.768 131.64 149.2 131.64 149.68V154H129.48V150.08C129.48 149.6 129.352 149.227 129.096 148.96C128.851 148.693 128.525 148.56 128.12 148.56C127.715 148.56 127.384 148.693 127.128 148.96C126.883 149.227 126.76 149.6 126.76 150.08V154H124.6V146.64H126.2L126.52 147.36C126.691 147.211 126.888 147.077 127.112 146.96C127.304 146.864 127.533 146.773 127.8 146.688C128.067 146.603 128.36 146.56 128.68 146.56ZM136.363 146.48C136.725 146.48 137.056 146.523 137.355 146.608C137.653 146.683 137.92 146.789 138.155 146.928C138.389 147.067 138.592 147.221 138.763 147.392C138.944 147.563 139.099 147.739 139.227 147.92C139.525 148.347 139.744 148.827 139.883 149.36L137.723 149.52C137.648 149.328 137.552 149.157 137.435 149.008C137.328 148.88 137.184 148.763 137.003 148.656C136.832 148.539 136.619 148.48 136.363 148.48C135.915 148.48 135.536 148.645 135.227 148.976C134.917 149.307 134.763 149.755 134.763 150.32C134.763 150.885 134.917 151.333 135.227 151.664C135.536 151.995 135.915 152.16 136.363 152.16C136.619 152.16 136.832 152.107 137.003 152C137.184 151.893 137.328 151.776 137.435 151.648C137.552 151.499 137.648 151.323 137.723 151.12L139.883 151.28C139.744 151.813 139.525 152.293 139.227 152.72C139.099 152.901 138.944 153.077 138.763 153.248C138.592 153.419 138.389 153.573 138.155 153.712C137.92 153.851 137.653 153.957 137.355 154.032C137.056 154.117 136.725 154.16 136.363 154.16C135.84 154.16 135.349 154.064 134.891 153.872C134.443 153.669 134.048 153.397 133.707 153.056C133.365 152.704 133.093 152.299 132.891 151.84C132.699 151.371 132.603 150.864 132.603 150.32C132.603 149.776 132.699 149.275 132.891 148.816C133.093 148.347 133.365 147.941 133.707 147.6C134.048 147.248 134.443 146.976 134.891 146.784C135.349 146.581 135.84 146.48 136.363 146.48ZM140.519 150.32C140.519 149.776 140.615 149.275 140.807 148.816C141.009 148.347 141.281 147.941 141.623 147.6C141.964 147.248 142.359 146.976 142.807 146.784C143.265 146.581 143.756 146.48 144.279 146.48C144.801 146.48 145.287 146.581 145.735 146.784C146.193 146.976 146.593 147.248 146.935 147.6C147.276 147.941 147.543 148.347 147.735 148.816C147.937 149.275 148.039 149.776 148.039 150.32C148.039 150.864 147.937 151.371 147.735 151.84C147.543 152.299 147.276 152.704 146.935 153.056C146.593 153.397 146.193 153.669 145.735 153.872C145.287 154.064 144.801 154.16 144.279 154.16C143.756 154.16 143.265 154.064 142.807 153.872C142.359 153.669 141.964 153.397 141.623 153.056C141.281 152.704 141.009 152.299 140.807 151.84C140.615 151.371 140.519 150.864 140.519 150.32ZM145.879 150.32C145.879 149.755 145.724 149.307 145.415 148.976C145.105 148.645 144.727 148.48 144.279 148.48C143.831 148.48 143.452 148.645 143.143 148.976C142.833 149.307 142.679 149.755 142.679 150.32C142.679 150.885 142.833 151.333 143.143 151.664C143.452 151.995 143.831 152.16 144.279 152.16C144.727 152.16 145.105 151.995 145.415 151.664C145.724 151.333 145.879 150.885 145.879 150.32ZM150.363 156.88H148.283L152.443 143.92H154.523L150.363 156.88ZM158.517 146.48C158.88 146.48 159.211 146.523 159.509 146.608C159.808 146.683 160.075 146.789 160.309 146.928C160.544 147.067 160.747 147.221 160.917 147.392C161.099 147.563 161.253 147.739 161.381 147.92C161.68 148.347 161.899 148.827 162.037 149.36L159.877 149.52C159.803 149.328 159.707 149.157 159.589 149.008C159.483 148.88 159.339 148.763 159.157 148.656C158.987 148.539 158.773 148.48 158.517 148.48C158.069 148.48 157.691 148.645 157.381 148.976C157.072 149.307 156.917 149.755 156.917 150.32C156.917 150.885 157.072 151.333 157.381 151.664C157.691 151.995 158.069 152.16 158.517 152.16C158.773 152.16 158.987 152.107 159.157 152C159.339 151.893 159.483 151.776 159.589 151.648C159.707 151.499 159.803 151.323 159.877 151.12L162.037 151.28C161.899 151.813 161.68 152.293 161.381 152.72C161.253 152.901 161.099 153.077 160.917 153.248C160.747 153.419 160.544 153.573 160.309 153.712C160.075 153.851 159.808 153.957 159.509 154.032C159.211 154.117 158.88 154.16 158.517 154.16C157.995 154.16 157.504 154.064 157.045 153.872C156.597 153.669 156.203 153.397 155.861 153.056C155.52 152.704 155.248 152.299 155.045 151.84C154.853 151.371 154.757 150.864 154.757 150.32C154.757 149.776 154.853 149.275 155.045 148.816C155.248 148.347 155.52 147.941 155.861 147.6C156.203 147.248 156.597 146.976 157.045 146.784C157.504 146.581 157.995 146.48 158.517 146.48ZM166.674 146.56C166.77 146.56 166.855 146.565 166.93 146.576C167.015 146.587 167.084 146.597 167.138 146.608C167.202 146.619 167.26 146.629 167.314 146.64V148.88C167.25 148.859 167.175 148.832 167.09 148.8C167.015 148.779 166.93 148.763 166.834 148.752C166.738 148.731 166.631 148.72 166.514 148.72C166.108 148.72 165.778 148.853 165.522 149.12C165.276 149.387 165.154 149.76 165.154 150.24V154H162.994V146.64H164.594L164.914 147.44C165.042 147.28 165.196 147.136 165.378 147.008C165.527 146.891 165.708 146.789 165.922 146.704C166.146 146.608 166.396 146.56 166.674 146.56ZM171.313 146.48C171.75 146.48 172.156 146.555 172.529 146.704C172.902 146.853 173.222 147.067 173.489 147.344C173.766 147.611 173.98 147.931 174.129 148.304C174.278 148.677 174.353 149.083 174.353 149.52V154H172.753L172.433 153.28C172.252 153.429 172.049 153.563 171.825 153.68C171.633 153.787 171.404 153.883 171.137 153.968C170.881 154.043 170.593 154.08 170.273 154.08C169.473 154.08 168.86 153.888 168.433 153.504C168.006 153.109 167.793 152.608 167.793 152C167.793 151.637 167.862 151.307 168.001 151.008C168.15 150.699 168.396 150.437 168.737 150.224C169.078 150 169.526 149.829 170.081 149.712C170.646 149.584 171.35 149.52 172.193 149.52C172.193 149.157 172.102 148.88 171.921 148.688C171.74 148.496 171.51 148.4 171.233 148.4C171.03 148.4 170.865 148.443 170.737 148.528C170.62 148.603 170.524 148.683 170.449 148.768C170.364 148.875 170.305 148.992 170.273 149.12L168.113 148.96C168.177 148.597 168.289 148.267 168.449 147.968C168.609 147.659 168.817 147.397 169.073 147.184C169.34 146.96 169.66 146.789 170.033 146.672C170.406 146.544 170.833 146.48 171.313 146.48ZM170.833 152.48C171.238 152.48 171.564 152.357 171.809 152.112C172.065 151.856 172.193 151.525 172.193 151.12V150.8C171.734 150.8 171.356 150.827 171.057 150.88C170.769 150.923 170.54 150.987 170.369 151.072C170.209 151.157 170.097 151.259 170.033 151.376C169.98 151.493 169.953 151.621 169.953 151.76C169.953 151.963 170.028 152.133 170.177 152.272C170.337 152.411 170.556 152.48 170.833 152.48ZM175.399 148.96H180.279V150.88H175.399V148.96ZM182.039 148.64H180.919V146.8H181.479C182.065 146.8 182.359 146.507 182.359 145.92V144.88H184.199V146.64H185.719V148.64H184.199V151.04C184.199 151.36 184.289 151.616 184.471 151.808C184.652 151.989 184.881 152.08 185.159 152.08C185.244 152.08 185.319 152.08 185.383 152.08C185.447 152.069 185.505 152.059 185.559 152.048C185.612 152.037 185.665 152.021 185.719 152V153.92C185.633 153.952 185.537 153.979 185.431 154C185.217 154.053 184.967 154.08 184.679 154.08C183.836 154.08 183.185 153.851 182.727 153.392C182.268 152.923 182.039 152.245 182.039 151.36V148.64ZM193.646 151.84C193.55 152.139 193.406 152.427 193.214 152.704C193.022 152.981 192.782 153.232 192.494 153.456C192.206 153.669 191.87 153.84 191.486 153.968C191.113 154.096 190.686 154.16 190.206 154.16C189.705 154.16 189.23 154.064 188.782 153.872C188.345 153.669 187.956 153.397 187.614 153.056C187.284 152.704 187.017 152.299 186.814 151.84C186.622 151.371 186.526 150.864 186.526 150.32C186.526 149.776 186.622 149.275 186.814 148.816C187.017 148.347 187.289 147.941 187.63 147.6C187.972 147.248 188.366 146.976 188.814 146.784C189.273 146.581 189.764 146.48 190.286 146.48C190.788 146.48 191.257 146.571 191.694 146.752C192.132 146.933 192.51 147.195 192.83 147.536C193.161 147.867 193.417 148.272 193.598 148.752C193.79 149.221 193.886 149.744 193.886 150.32C193.886 150.405 193.881 150.491 193.87 150.576C193.86 150.651 193.849 150.725 193.838 150.8C193.828 150.885 193.817 150.965 193.806 151.04H188.766C188.852 151.317 189.022 151.573 189.278 151.808C189.545 152.043 189.881 152.16 190.286 152.16C190.489 152.16 190.66 152.139 190.798 152.096C190.948 152.043 191.065 151.984 191.15 151.92C191.257 151.856 191.342 151.776 191.406 151.68L193.646 151.84ZM190.286 148.48C189.881 148.48 189.545 148.603 189.278 148.848C189.022 149.083 188.852 149.36 188.766 149.68H191.806C191.721 149.36 191.545 149.083 191.278 148.848C191.022 148.603 190.692 148.48 190.286 148.48ZM198.601 146.56C198.974 146.56 199.294 146.613 199.561 146.72C199.827 146.816 200.046 146.923 200.217 147.04C200.409 147.179 200.563 147.339 200.681 147.52C200.851 147.339 201.049 147.179 201.273 147.04C201.465 146.923 201.694 146.816 201.961 146.72C202.227 146.613 202.521 146.56 202.841 146.56C203.641 146.56 204.281 146.816 204.761 147.328C205.241 147.84 205.481 148.597 205.481 149.6V154H203.321V149.84C203.321 149.435 203.214 149.12 203.001 148.896C202.798 148.672 202.558 148.56 202.281 148.56C202.003 148.56 201.758 148.672 201.545 148.896C201.342 149.12 201.241 149.435 201.241 149.84V154H199.081V149.84C199.081 149.435 198.974 149.12 198.761 148.896C198.558 148.672 198.318 148.56 198.041 148.56C197.763 148.56 197.518 148.672 197.305 148.896C197.102 149.12 197.001 149.435 197.001 149.84V154H194.841V146.64H196.441L196.761 147.36C196.899 147.211 197.065 147.077 197.257 146.96C197.417 146.864 197.609 146.773 197.833 146.688C198.067 146.603 198.323 146.56 198.601 146.56ZM210.757 146.56C211.216 146.56 211.653 146.656 212.069 146.848C212.485 147.029 212.848 147.291 213.157 147.632C213.477 147.963 213.728 148.357 213.909 148.816C214.101 149.275 214.197 149.776 214.197 150.32C214.197 150.864 214.101 151.365 213.909 151.824C213.728 152.283 213.477 152.683 213.157 153.024C212.848 153.355 212.485 153.616 212.069 153.808C211.653 153.989 211.216 154.08 210.757 154.08C210.48 154.08 210.224 154.048 209.989 153.984C209.765 153.92 209.573 153.845 209.413 153.76C209.221 153.664 209.056 153.557 208.917 153.44V156.56H206.757V146.64H208.357L208.677 147.36C208.837 147.211 209.024 147.077 209.237 146.96C209.418 146.864 209.637 146.773 209.893 146.688C210.149 146.603 210.437 146.56 210.757 146.56ZM212.037 150.32C212.037 149.797 211.882 149.376 211.573 149.056C211.264 148.725 210.885 148.56 210.437 148.56C209.989 148.56 209.61 148.725 209.301 149.056C208.992 149.376 208.837 149.797 208.837 150.32C208.837 150.843 208.992 151.269 209.301 151.6C209.61 151.92 209.989 152.08 210.437 152.08C210.885 152.08 211.264 151.92 211.573 151.6C211.882 151.269 212.037 150.843 212.037 150.32ZM217.396 154H215.236V143.92H217.396V154ZM221.961 146.48C222.399 146.48 222.804 146.555 223.177 146.704C223.551 146.853 223.871 147.067 224.137 147.344C224.415 147.611 224.628 147.931 224.777 148.304C224.927 148.677 225.001 149.083 225.001 149.52V154H223.401L223.081 153.28C222.9 153.429 222.697 153.563 222.473 153.68C222.281 153.787 222.052 153.883 221.785 153.968C221.529 154.043 221.241 154.08 220.921 154.08C220.121 154.08 219.508 153.888 219.081 153.504C218.655 153.109 218.441 152.608 218.441 152C218.441 151.637 218.511 151.307 218.649 151.008C218.799 150.699 219.044 150.437 219.385 150.224C219.727 150 220.175 149.829 220.729 149.712C221.295 149.584 221.999 149.52 222.841 149.52C222.841 149.157 222.751 148.88 222.569 148.688C222.388 148.496 222.159 148.4 221.881 148.4C221.679 148.4 221.513 148.443 221.385 148.528C221.268 148.603 221.172 148.683 221.097 148.768C221.012 148.875 220.953 148.992 220.921 149.12L218.761 148.96C218.825 148.597 218.937 148.267 219.097 147.968C219.257 147.659 219.465 147.397 219.721 147.184C219.988 146.96 220.308 146.789 220.681 146.672C221.055 146.544 221.481 146.48 221.961 146.48ZM221.481 152.48C221.887 152.48 222.212 152.357 222.457 152.112C222.713 151.856 222.841 151.525 222.841 151.12V150.8C222.383 150.8 222.004 150.827 221.705 150.88C221.417 150.923 221.188 150.987 221.017 151.072C220.857 151.157 220.745 151.259 220.681 151.376C220.628 151.493 220.601 151.621 220.601 151.76C220.601 151.963 220.676 152.133 220.825 152.272C220.985 152.411 221.204 152.48 221.481 152.48ZM226.771 148.64H225.651V146.8H226.211C226.797 146.8 227.091 146.507 227.091 145.92V144.88H228.931V146.64H230.451V148.64H228.931V151.04C228.931 151.36 229.021 151.616 229.203 151.808C229.384 151.989 229.613 152.08 229.891 152.08C229.976 152.08 230.051 152.08 230.115 152.08C230.179 152.069 230.237 152.059 230.291 152.048C230.344 152.037 230.397 152.021 230.451 152V153.92C230.365 153.952 230.269 153.979 230.163 154C229.949 154.053 229.699 154.08 229.411 154.08C228.568 154.08 227.917 153.851 227.459 153.392C227 152.923 226.771 152.245 226.771 151.36V148.64ZM238.378 151.84C238.282 152.139 238.138 152.427 237.946 152.704C237.754 152.981 237.514 153.232 237.226 153.456C236.938 153.669 236.602 153.84 236.218 153.968C235.845 154.096 235.418 154.16 234.938 154.16C234.437 154.16 233.962 154.064 233.514 153.872C233.077 153.669 232.687 153.397 232.346 153.056C232.015 152.704 231.749 152.299 231.546 151.84C231.354 151.371 231.258 150.864 231.258 150.32C231.258 149.776 231.354 149.275 231.546 148.816C231.749 148.347 232.021 147.941 232.362 147.6C232.703 147.248 233.098 146.976 233.546 146.784C234.005 146.581 234.495 146.48 235.018 146.48C235.519 146.48 235.989 146.571 236.426 146.752C236.863 146.933 237.242 147.195 237.562 147.536C237.893 147.867 238.149 148.272 238.33 148.752C238.522 149.221 238.618 149.744 238.618 150.32C238.618 150.405 238.613 150.491 238.602 150.576C238.591 150.651 238.581 150.725 238.57 150.8C238.559 150.885 238.549 150.965 238.538 151.04H233.498C233.583 151.317 233.754 151.573 234.01 151.808C234.277 152.043 234.613 152.16 235.018 152.16C235.221 152.16 235.391 152.139 235.53 152.096C235.679 152.043 235.797 151.984 235.882 151.92C235.989 151.856 236.074 151.776 236.138 151.68L238.378 151.84ZM235.018 148.48C234.613 148.48 234.277 148.603 234.01 148.848C233.754 149.083 233.583 149.36 233.498 149.68H236.538C236.453 149.36 236.277 149.083 236.01 148.848C235.754 148.603 235.423 148.48 235.018 148.48ZM239.411 148.96H244.291V150.88H239.411V148.96ZM249.091 146.56C249.187 146.56 249.272 146.565 249.347 146.576C249.432 146.587 249.501 146.597 249.555 146.608C249.619 146.619 249.677 146.629 249.731 146.64V148.88C249.667 148.859 249.592 148.832 249.507 148.8C249.432 148.779 249.347 148.763 249.251 148.752C249.155 148.731 249.048 148.72 248.931 148.72C248.525 148.72 248.195 148.853 247.939 149.12C247.693 149.387 247.571 149.76 247.571 150.24V154H245.411V146.64H247.011L247.331 147.44C247.459 147.28 247.613 147.136 247.795 147.008C247.944 146.891 248.125 146.789 248.339 146.704C248.563 146.608 248.813 146.56 249.091 146.56ZM257.33 151.84C257.234 152.139 257.09 152.427 256.898 152.704C256.706 152.981 256.466 153.232 256.178 153.456C255.89 153.669 255.554 153.84 255.17 153.968C254.797 154.096 254.37 154.16 253.89 154.16C253.389 154.16 252.914 154.064 252.466 153.872C252.029 153.669 251.639 153.397 251.298 153.056C250.967 152.704 250.701 152.299 250.498 151.84C250.306 151.371 250.21 150.864 250.21 150.32C250.21 149.776 250.306 149.275 250.498 148.816C250.701 148.347 250.973 147.941 251.314 147.6C251.655 147.248 252.05 146.976 252.498 146.784C252.957 146.581 253.447 146.48 253.97 146.48C254.471 146.48 254.941 146.571 255.378 146.752C255.815 146.933 256.194 147.195 256.514 147.536C256.845 147.867 257.101 148.272 257.282 148.752C257.474 149.221 257.57 149.744 257.57 150.32C257.57 150.405 257.565 150.491 257.554 150.576C257.543 150.651 257.533 150.725 257.522 150.8C257.511 150.885 257.501 150.965 257.49 151.04H252.45C252.535 151.317 252.706 151.573 252.962 151.808C253.229 152.043 253.565 152.16 253.97 152.16C254.173 152.16 254.343 152.139 254.482 152.096C254.631 152.043 254.749 151.984 254.834 151.92C254.941 151.856 255.026 151.776 255.09 151.68L257.33 151.84ZM253.97 148.48C253.565 148.48 253.229 148.603 252.962 148.848C252.706 149.083 252.535 149.36 252.45 149.68H255.49C255.405 149.36 255.229 149.083 254.962 148.848C254.706 148.603 254.375 148.48 253.97 148.48ZM260.284 151.6C260.327 151.845 260.428 152.043 260.588 152.192C260.748 152.331 260.967 152.4 261.244 152.4C261.522 152.4 261.735 152.336 261.884 152.208C262.044 152.069 262.124 151.92 262.124 151.76C262.124 151.632 262.028 151.531 261.836 151.456C261.655 151.371 261.426 151.291 261.148 151.216C260.871 151.131 260.567 151.035 260.236 150.928C259.916 150.821 259.618 150.683 259.34 150.512C259.063 150.331 258.828 150.096 258.636 149.808C258.455 149.52 258.364 149.157 258.364 148.72C258.364 148.421 258.428 148.139 258.556 147.872C258.684 147.595 258.866 147.355 259.1 147.152C259.346 146.949 259.639 146.789 259.98 146.672C260.332 146.544 260.727 146.48 261.164 146.48C262.124 146.48 262.855 146.693 263.356 147.12C263.858 147.547 264.167 148.08 264.284 148.72L262.204 148.88C262.162 148.72 262.066 148.576 261.916 148.448C261.767 148.309 261.57 148.24 261.324 148.24C261.079 148.24 260.898 148.293 260.78 148.4C260.663 148.507 260.604 148.64 260.604 148.8C260.604 148.939 260.695 149.045 260.876 149.12C261.068 149.195 261.303 149.275 261.58 149.36C261.858 149.435 262.156 149.525 262.476 149.632C262.807 149.739 263.111 149.883 263.388 150.064C263.666 150.235 263.895 150.464 264.076 150.752C264.268 151.04 264.364 151.403 264.364 151.84C264.364 152.139 264.295 152.427 264.156 152.704C264.028 152.981 263.836 153.232 263.58 153.456C263.324 153.669 263.01 153.84 262.636 153.968C262.274 154.096 261.863 154.16 261.404 154.16C260.402 154.16 259.644 153.941 259.132 153.504C258.631 153.067 258.322 152.485 258.204 151.76L260.284 151.6ZM268.849 146.48C269.212 146.48 269.543 146.523 269.841 146.608C270.14 146.683 270.407 146.789 270.641 146.928C270.876 147.067 271.079 147.221 271.249 147.392C271.431 147.563 271.585 147.739 271.713 147.92C272.012 148.347 272.231 148.827 272.369 149.36L270.209 149.52C270.135 149.328 270.039 149.157 269.921 149.008C269.815 148.88 269.671 148.763 269.489 148.656C269.319 148.539 269.105 148.48 268.849 148.48C268.401 148.48 268.023 148.645 267.713 148.976C267.404 149.307 267.249 149.755 267.249 150.32C267.249 150.885 267.404 151.333 267.713 151.664C268.023 151.995 268.401 152.16 268.849 152.16C269.105 152.16 269.319 152.107 269.489 152C269.671 151.893 269.815 151.776 269.921 151.648C270.039 151.499 270.135 151.323 270.209 151.12L272.369 151.28C272.231 151.813 272.012 152.293 271.713 152.72C271.585 152.901 271.431 153.077 271.249 153.248C271.079 153.419 270.876 153.573 270.641 153.712C270.407 153.851 270.14 153.957 269.841 154.032C269.543 154.117 269.212 154.16 268.849 154.16C268.327 154.16 267.836 154.064 267.377 153.872C266.929 153.669 266.535 153.397 266.193 153.056C265.852 152.704 265.58 152.299 265.377 151.84C265.185 151.371 265.089 150.864 265.089 150.32C265.089 149.776 265.185 149.275 265.377 148.816C265.58 148.347 265.852 147.941 266.193 147.6C266.535 147.248 266.929 146.976 267.377 146.784C267.836 146.581 268.327 146.48 268.849 146.48ZM277.006 146.56C277.102 146.56 277.187 146.565 277.262 146.576C277.347 146.587 277.416 146.597 277.47 146.608C277.534 146.619 277.592 146.629 277.646 146.64V148.88C277.582 148.859 277.507 148.832 277.422 148.8C277.347 148.779 277.262 148.763 277.166 148.752C277.07 148.731 276.963 148.72 276.846 148.72C276.44 148.72 276.11 148.853 275.854 149.12C275.608 149.387 275.486 149.76 275.486 150.24V154H273.326V146.64H274.926L275.246 147.44C275.374 147.28 275.528 147.136 275.71 147.008C275.859 146.891 276.04 146.789 276.254 146.704C276.478 146.608 276.728 146.56 277.006 146.56ZM280.763 154H278.603V146.64H280.763V154ZM278.523 144.64C278.523 144.32 278.64 144.043 278.875 143.808C279.12 143.563 279.403 143.44 279.723 143.44C280.043 143.44 280.32 143.563 280.555 143.808C280.8 144.043 280.923 144.32 280.923 144.64C280.923 144.96 280.8 145.243 280.555 145.488C280.32 145.723 280.043 145.84 279.723 145.84C279.403 145.84 279.12 145.723 278.875 145.488C278.64 145.243 278.523 144.96 278.523 144.64ZM286.283 146.56C286.742 146.56 287.179 146.656 287.595 146.848C288.011 147.029 288.374 147.291 288.683 147.632C289.003 147.963 289.254 148.357 289.435 148.816C289.627 149.275 289.723 149.776 289.723 150.32C289.723 150.864 289.627 151.365 289.435 151.824C289.254 152.283 289.003 152.683 288.683 153.024C288.374 153.355 288.011 153.616 287.595 153.808C287.179 153.989 286.742 154.08 286.283 154.08C286.006 154.08 285.75 154.048 285.515 153.984C285.291 153.92 285.099 153.845 284.939 153.76C284.747 153.664 284.582 153.557 284.443 153.44V156.56H282.283V146.64H283.883L284.203 147.36C284.363 147.211 284.55 147.077 284.763 146.96C284.944 146.864 285.163 146.773 285.419 146.688C285.675 146.603 285.963 146.56 286.283 146.56ZM287.563 150.32C287.563 149.797 287.408 149.376 287.099 149.056C286.79 148.725 286.411 148.56 285.963 148.56C285.515 148.56 285.136 148.725 284.827 149.056C284.518 149.376 284.363 149.797 284.363 150.32C284.363 150.843 284.518 151.269 284.827 151.6C285.136 151.92 285.515 152.08 285.963 152.08C286.411 152.08 286.79 151.92 287.099 151.6C287.408 151.269 287.563 150.843 287.563 150.32ZM291.402 148.64H290.282V146.8H290.842C291.429 146.8 291.722 146.507 291.722 145.92V144.88H293.562V146.64H295.082V148.64H293.562V151.04C293.562 151.36 293.653 151.616 293.834 151.808C294.015 151.989 294.245 152.08 294.522 152.08C294.607 152.08 294.682 152.08 294.746 152.08C294.81 152.069 294.869 152.059 294.922 152.048C294.975 152.037 295.029 152.021 295.082 152V153.92C294.997 153.952 294.901 153.979 294.794 154C294.581 154.053 294.33 154.08 294.042 154.08C293.199 154.08 292.549 153.851 292.09 153.392C291.631 152.923 291.402 152.245 291.402 151.36V148.64ZM296.126 148.96H301.006V150.88H296.126V148.96ZM304.286 154H302.126V143.92H304.286V154ZM308.531 154.08C308.094 154.08 307.694 154.011 307.331 153.872C306.969 153.723 306.654 153.515 306.387 153.248C306.131 152.971 305.929 152.64 305.779 152.256C305.641 151.872 305.571 151.44 305.571 150.96V146.64H307.731V150.56C307.731 151.04 307.854 151.413 308.099 151.68C308.355 151.947 308.686 152.08 309.091 152.08C309.497 152.08 309.822 151.947 310.067 151.68C310.323 151.413 310.451 151.04 310.451 150.56V146.64H312.611V154H311.011L310.691 153.28C310.51 153.429 310.307 153.563 310.083 153.68C309.891 153.787 309.662 153.883 309.395 153.968C309.139 154.043 308.851 154.08 308.531 154.08ZM318.374 154L316.134 150.72V154H313.974V143.92H316.134V149.6L318.134 146.64H320.614L318.134 150.16L320.854 154H318.374ZM323.489 154H321.329V146.64H323.489V154ZM321.249 144.64C321.249 144.32 321.367 144.043 321.601 143.808C321.847 143.563 322.129 143.44 322.449 143.44C322.769 143.44 323.047 143.563 323.281 143.808C323.527 144.043 323.649 144.32 323.649 144.64C323.649 144.96 323.527 145.243 323.281 145.488C323.047 145.723 322.769 145.84 322.449 145.84C322.129 145.84 321.847 145.723 321.601 145.488C321.367 145.243 321.249 144.96 321.249 144.64ZM329.089 146.56C329.527 146.56 329.927 146.635 330.289 146.784C330.652 146.923 330.961 147.131 331.217 147.408C331.484 147.675 331.687 148 331.825 148.384C331.975 148.768 332.049 149.2 332.049 149.68V154H329.889V150.08C329.889 149.6 329.761 149.227 329.505 148.96C329.26 148.693 328.935 148.56 328.529 148.56C328.124 148.56 327.793 148.693 327.537 148.96C327.292 149.227 327.169 149.6 327.169 150.08V154H325.009V146.64H326.609L326.929 147.36C327.1 147.211 327.297 147.077 327.521 146.96C327.713 146.864 327.943 146.773 328.209 146.688C328.476 146.603 328.769 146.56 329.089 146.56Z" fill="#C5C5C5"/>
<mask id="mask0" mask-type="alpha" maskUnits="userSpaceOnUse" x="167" y="0" width="89" height="80">
<path d="M256 0H167V80H256V0Z" fill="white"/>
</mask>
<g mask="url(#mask0)">
<path fill-rule="evenodd" clip-rule="evenodd" d="M185.037 50.8617H185.037C185.523 51.0245 186.023 51.1817 186.532 51.3341C187.658 47.7316 189.179 43.9006 191.039 39.9431C189.263 36.0792 187.802 32.2976 186.707 28.7181C185.797 28.9847 184.913 29.2653 184.061 29.5618C175.825 32.4257 170.802 36.6609 170.802 39.924C170.802 43.4 176.227 47.9126 185.037 50.8617ZM188.264 70.0467C188.795 72.9333 189.861 74.8578 191.178 75.6286C193.983 77.2688 199.982 75.1367 206.45 69.513C207.192 68.8684 207.939 68.1799 208.688 67.4517C206.18 64.6805 203.674 61.4588 201.228 57.8814C196.925 57.4957 192.86 56.865 189.174 56.0043C188.993 56.7444 188.831 57.4699 188.692 58.1794C187.802 62.7246 187.674 66.8341 188.264 70.0467ZM211.352 64.7024C213.154 62.7378 214.952 60.565 216.707 58.228C215.003 58.2956 213.266 58.3298 211.5 58.3298C209.686 58.3298 207.892 58.2888 206.127 58.2092C207.86 60.5889 209.611 62.7648 211.352 64.7024ZM215.695 69.0439C219.148 72.0937 222.608 74.2568 225.658 75.3452H225.658C228.398 76.3229 230.581 76.3508 231.9 75.5824C234.708 73.9469 235.874 67.6316 234.283 59.1615C234.093 58.1605 233.877 57.165 233.633 56.1762C229.987 56.9907 225.952 57.5769 221.639 57.9303C219.177 61.4309 216.598 64.6486 213.999 67.4664C214.552 68.0063 215.117 68.5322 215.695 69.0439ZM236.299 51.535C237.037 51.3216 237.769 51.09 238.496 50.8403C242.836 49.3416 246.42 47.3941 248.876 45.2691C251.084 43.3591 252.198 41.4629 252.198 39.924C252.198 36.6502 247.366 32.4738 239.308 29.6354C238.297 29.2807 237.275 28.9559 236.245 28.6616C235.131 32.3214 233.67 36.148 231.907 40.0176C233.693 43.9448 235.175 47.8322 236.299 51.535ZM231.959 4.4599C228.981 2.71851 222.398 5.20164 215.458 11.4266C215.015 11.8245 214.569 12.2412 214.123 12.6721C216.708 15.4772 219.263 18.6706 221.704 22.151C225.89 22.5429 229.897 23.1725 233.581 24.0157C233.808 23.0976 234.012 22.1738 234.192 21.2453V21.2457C235.865 12.6093 234.754 6.0946 231.959 4.4599ZM211.457 15.4171C209.704 17.3363 207.948 19.4796 206.22 21.8048C209.724 21.6375 213.235 21.6367 216.739 21.8024C215.01 19.4987 213.239 17.3586 211.457 15.4171ZM193.242 35.5018C194.064 33.925 194.918 32.3651 195.802 30.8228V30.8228C196.672 29.3045 197.574 27.8052 198.508 26.3261C195.668 26.6882 192.948 27.1698 190.393 27.7591C191.16 30.2426 192.116 32.8396 193.242 35.5018ZM195.786 49.159C194.891 47.5905 194.031 46.002 193.205 44.3949C192.016 47.1343 191.013 49.7845 190.217 52.3046C192.797 52.8996 195.583 53.3787 198.519 53.7344C197.578 52.2277 196.667 50.7023 195.786 49.159ZM227.705 40.0163C226.533 37.553 225.27 35.135 223.919 32.7676V32.7683C222.568 30.4004 221.129 28.0851 219.604 25.8275C216.957 25.6254 214.243 25.5195 211.5 25.5195C208.744 25.5195 206.027 25.6261 203.381 25.8299C201.871 28.084 200.441 30.3912 199.092 32.7472C197.736 35.1094 196.457 37.5156 195.256 39.9618C196.444 42.433 197.72 44.8606 199.08 47.2401L199.08 47.2401C200.428 49.6062 201.852 51.9274 203.35 54.2C205.99 54.3906 208.719 54.4889 211.5 54.4889C214.269 54.4889 216.964 54.4018 219.558 54.2318C221.094 51.9645 222.545 49.6393 223.908 47.2612C225.264 44.8957 226.53 42.479 227.705 40.0163ZM229.726 35.499C230.833 32.8459 231.78 30.2374 232.554 27.7185C230.014 27.1443 227.306 26.6751 224.485 26.319C225.43 27.8072 226.339 29.3177 227.214 30.8491C228.087 32.3791 228.924 33.9295 229.726 35.499ZM229.721 44.5329C228.917 46.1036 228.075 47.6549 227.198 49.1856C226.303 50.7471 225.372 52.2867 224.404 53.8033C227.319 53.4746 230.068 53.0293 232.606 52.471C231.82 49.9075 230.852 47.2429 229.721 44.5329ZM206.747 10.7736C200.176 4.9963 194.035 2.71533 191.237 4.34567C188.257 6.08229 187.097 13.0848 188.97 22.268C189.093 22.8662 189.226 23.4621 189.37 24.0555C193.062 23.1948 197.072 22.5541 201.27 22.1561C203.716 18.638 206.25 15.439 208.793 12.6701C208.127 12.0209 207.444 11.3885 206.747 10.7736ZM182.824 25.9294C183.771 25.6011 184.726 25.297 185.689 25.0173C185.529 24.362 185.382 23.7039 185.246 23.0432C183.077 12.4071 184.495 3.8387 189.338 1.01811C193.981 -1.68702 201.574 1.13352 209.243 7.8758C209.998 8.54167 210.737 9.22672 211.459 9.93036C211.942 9.4625 212.433 9.00369 212.933 8.55426C220.971 1.34444 229.027 -1.69342 233.864 1.13552C238.502 3.84827 239.876 11.9037 237.924 21.9834C237.729 22.9816 237.51 23.9747 237.266 24.9616C238.406 25.2887 239.507 25.6373 240.56 26.0082C249.982 29.327 256 34.5288 256 39.924C256 45.4968 249.54 51.0862 239.726 54.475C238.93 54.7485 238.127 55.002 237.319 55.235C237.582 56.2983 237.815 57.3688 238.018 58.4452C239.88 68.3499 238.426 76.2143 233.8 78.9104C229.021 81.6939 221.002 78.8327 213.193 71.9365C212.576 71.3913 211.956 70.8131 211.336 70.2071C210.554 70.9687 209.752 71.7082 208.93 72.4248C201.366 79.0007 193.895 81.6561 189.273 78.9529C184.499 76.161 182.948 67.7124 184.963 57.4333C185.116 56.6481 185.295 55.8463 185.496 55.0297C184.933 54.8618 184.38 54.6883 183.841 54.5076C173.638 51.0925 167 45.5712 167 39.924C167 34.5093 173.211 29.2725 182.824 25.9294Z" fill="#F4F4F4"/>
</g>
<path fill-rule="evenodd" clip-rule="evenodd" d="M204.906 32H218.472C218.942 32 219.176 32.5965 218.845 32.9453L214.278 39.1462C213.921 39.679 213.923 40.3898 214.282 40.9208L218.845 47.0547C219.176 47.4035 218.942 48 218.472 48H204.906C204.408 48 204 47.5712 204 47.0471V32.9529C204 32.4288 204.408 32 204.906 32Z" fill="black"/>
</svg>
